<?xml version="1.0" encoding="utf-8"?>
<!-- Generator: Adobe Illustrator 24.0.1, SVG Export Plug-In . SVG Version: 6.00 Build 0)  -->
<svg version="1.1"
	 id="svg8" inkscape:version="0.92.4 (5da689c313, 2019-01-14)" sodipodi:docname="A.svg" xmlns:cc="http://creativecommons.org/ns#" xmlns:dc="http://purl.org/dc/elements/1.1/" xmlns:inkscape="http://www.inkscape.org/namespaces/inkscape" xmlns:rdf="http://www.w3.org/1999/02/22-rdf-syntax-ns#" xmlns:sodipodi="http://sodipodi.sourceforge.net/DTD/sodipodi-0.dtd" xmlns:svg="http://www.w3.org/2000/svg"
	 xmlns="http://www.w3.org/2000/svg" xmlns:xlink="http://www.w3.org/1999/xlink" x="0px" y="0px" viewBox="0 0 1000 872.9"
	 style="enable-background:new 0 0 1000 872.9;" xml:space="preserve">
<style type="text/css">
	.st0{fill:#FFFFFF;}
	.st1{fill:#32DE84;}
</style>
<sodipodi:namedview  bordercolor="#666666" borderopacity="1.0" fit-margin-bottom="0" fit-margin-left="0" fit-margin-right="0" fit-margin-top="0" id="base" inkscape:current-layer="layer1" inkscape:cx="1292.0825" inkscape:cy="333.20379" inkscape:document-units="px" inkscape:pageopacity="0.0" inkscape:pageshadow="2" inkscape:window-height="1017" inkscape:window-maximized="1" inkscape:window-width="1920" inkscape:window-x="1912" inkscape:window-y="-8" inkscape:zoom="0.175" pagecolor="#ffffff" showgrid="false" units="px">
	<inkscape:grid  id="grid823" originx="-66.971031" originy="195.86492" type="xygrid"></inkscape:grid>
</sodipodi:namedview>
<g id="layer1" transform="translate(-66.970994,-261.91674)" inkscape:groupmode="layer" inkscape:label="Layer 1">
	<g id="g80302" transform="matrix(1.3212521,0,0,1.3212521,480.52565,-75.040147)">
		<path id="path825" inkscape:connector-curvature="0" class="st0" d="M-260.2,801.4c-26,0-52.8,20.9-52.8,57.4
			c0,33.4,23.5,56.9,52.8,56.9c24.1,0,34.9-16.2,34.9-16.2v7.1c0,3.3,3.2,7.1,7.1,7.1h17.5V803.9h-24.5v13.9
			C-225.3,817.8-236.2,801.4-260.2,801.4L-260.2,801.4z M-255.8,823.8c21.4,0,32.7,18.8,32.7,34.9c0,17.9-13.3,34.9-32.6,34.9
			c-16.1,0-32.3-13-32.3-35.1C-288.1,838.5-274.2,823.8-255.8,823.8z"/>
		<path id="path829" inkscape:connector-curvature="0" sodipodi:nodetypes="ccccccccccccccc" class="st0" d="M-166.7,913.6
			c-3.8,0-7.1-2.7-7.1-7.1V803.9h24.5v13.6c5.6-8.4,16.4-16.1,33.1-16.1c27.2,0,41.7,21.7,41.7,42v70.2h-17c-4.5,0-7.5-3.7-7.5-7.5
			v-57.4c0-11.3-6.9-24.9-22.8-24.9c-17.2,0-27.5,16.3-27.5,31.6v58.2H-166.7z"/>
		<path id="path833" inkscape:connector-curvature="0" sodipodi:nodetypes="ssscssccccssscss" class="st0" d="M-2.9,801.4
			c-26,0-52.8,20.9-52.8,57.4c0,33.4,23.5,56.9,52.8,56.9c24.1,0,34.9-16.2,34.9-16.2v7.1c0,3.3,3.2,7.1,7.1,7.1h17.5V749H32v68.8
			C32,817.8,21.1,801.4-2.9,801.4L-2.9,801.4z M1.4,823.8c21.4,0,32.7,18.8,32.7,34.9c0,17.9-13.3,34.9-32.6,34.9
			c-16.1,0-32.3-13-32.3-35.1C-30.8,838.5-16.9,823.8,1.4,823.8z"/>
		<path id="path835" inkscape:connector-curvature="0" sodipodi:nodetypes="cccccccccccc" class="st0" d="M90.6,913.6
			c-3.8,0-7.1-2.7-7.1-7.1V803.9H108v18.3c4.2-10.2,13.3-19.5,29.5-19.5c4.5,0,8.7,0.8,8.7,0.8v25.4c0,0-5.3-2.1-11.6-2.1
			c-17.2,0-26.6,16.3-26.6,31.6v55.3L90.6,913.6z"/>
		<path id="path837" inkscape:connector-curvature="0" sodipodi:nodetypes="cccccc" class="st0" d="M295.1,913.6
			c-3.8,0-7.1-2.7-7.1-7.1V803.9h24.5v109.7L295.1,913.6z"/>
		<path id="path839" inkscape:connector-curvature="0" sodipodi:nodetypes="ssscssccccssscss" class="st0" d="M384.4,801.4
			c-26,0-52.8,20.9-52.8,57.4c0,33.4,23.5,56.9,52.8,56.9c24.1,0,34.9-16.2,34.9-16.2v7.1c0,3.3,3.2,7.1,7.1,7.1h17.5V749h-24.5
			v68.8C419.3,817.8,408.5,801.4,384.4,801.4L384.4,801.4z M388.8,823.8c21.4,0,32.7,18.8,32.7,34.9c0,17.9-13.3,34.9-32.6,34.9
			c-16.1,0-32.3-13-32.3-35.1C356.6,838.5,370.5,823.8,388.8,823.8z"/>
		<circle id="path841" class="st0" cx="300.1" cy="764" r="16.2"/>
		<path id="path843" inkscape:connector-curvature="0" class="st0" d="M210.9,801.3c-27.3,0-57.2,20.3-57.2,57.2
			c0,33.6,25.5,57.1,57.1,57.1c39,0,58-31.3,58-56.9C268.9,827.3,244.4,801.3,210.9,801.3L210.9,801.3z M211,824.2
			c18.8,0,32.9,15.2,32.9,34.4c0,19.5-14.9,34.6-32.8,34.6c-16.6,0-32.8-13.5-32.8-34.2C178.3,837.9,193.7,824.2,211,824.2
			L211,824.2z"/>
	</g>
	<path id="path80319" inkscape:connector-curvature="0" class="st1" d="M811,430.8l82.9-143.6c4.7-8.1,1.8-18.3-6.1-23
		c-7.9-4.7-18.3-2-22.8,6.1l-84,145.5c-64.1-29.3-136.2-45.6-213.8-45.6c-77.6,0-149.7,16.3-213.8,45.6l-84-145.5
		c-4.7-8.1-14.9-10.8-23-6.1c-8.1,4.7-10.8,14.9-6.1,23l82.9,143.6C180.4,508.2,83.6,652.9,67.6,822.3h999.3
		C1050.9,652.9,954.1,508.2,811,430.8z M337.8,682c-23.2,0-41.9-18.8-41.9-41.9c0-23.2,18.8-41.9,41.9-41.9
		c23.2,0,41.9,18.8,41.9,41.9C379.8,663.1,361,682,337.8,682z M796.6,682c-23.2,0-41.9-18.8-41.9-41.9c0-23.2,18.8-41.9,41.9-41.9
		c23.2,0,41.9,18.8,41.9,41.9C838.6,663.1,819.7,682,796.6,682z"/>
</g>
</svg>
