<svg xmlns="http://www.w3.org/2000/svg" viewBox="0 0 79.73 79.73"><title>cloudfront</title><path d="M61.51,57.24a4.27,4.27,0,1,0-4.27,4.27,4.27,4.27,0,0,0,4.27-4.27Zm2.84,0a7.12,7.12,0,1,1-7.11-7.12,7.13,7.13,0,0,1,7.11,7.12Zm-38-20.55A4.27,4.27,0,1,0,22,41a4.28,4.28,0,0,0,4.27-4.27Zm2.85,0A7.12,7.12,0,1,1,22,29.57a7.13,7.13,0,0,1,7.12,7.12ZM39.59,14.36a4.28,4.28,0,1,0,4.27-4.27,4.27,4.27,0,0,0-4.27,4.27Zm-2.84,0a7.12,7.12,0,1,1,7.11,7.12,7.13,7.13,0,0,1-7.11-7.12ZM77,40A37,37,0,0,0,58.5,8,44.34,44.34,0,0,0,52,9.83L51,7.15c1.29-.46,2.44-.84,3.55-1.16a36.58,36.58,0,0,0-21.7-2.33A46.61,46.61,0,0,1,37.5,6.71L35.77,9a47.6,47.6,0,0,0-6.9-4.3A37.07,37.07,0,0,0,3.22,35.89a49.46,49.46,0,0,1,8.87-1l.07,2.84A45.91,45.91,0,0,0,3,38.85c0,.37,0,.76,0,1.13A36.92,36.92,0,0,0,19.09,70.51a47.38,47.38,0,0,1-2.68-15.23,35.32,35.32,0,0,1,1-7.52c.12-.57.24-1.14.36-1.73l2.79.55c-.12.6-.24,1.19-.36,1.76a32,32,0,0,0-.93,6.94A47.09,47.09,0,0,0,23,72.84,36.52,36.52,0,0,0,40,77a36.15,36.15,0,0,0,11.4-1.84,46.94,46.94,0,0,0,3.39-8.56l2.74.79a50.43,50.43,0,0,1-2.29,6.3,36.08,36.08,0,0,0,6.52-3.81c-.49-1.2-1-2.4-1.6-3.56L62.68,65c.5,1,1,2,1.39,3A36.79,36.79,0,0,0,77,40Zm2.85,0A39.58,39.58,0,0,1,64.35,71.51a38.43,38.43,0,0,1-7.87,4.73c-1.19.54-2.4,1-3.64,1.46A39.21,39.21,0,0,1,40,79.84,39.85,39.85,0,0,1,.11,40c0-1,0-1.72.09-2.41A39.92,39.92,0,0,1,28.59,1.77,39.81,39.81,0,0,1,59.46,5.21,39.9,39.9,0,0,1,79.84,40ZM36.15,19.28l-1.87-2.14a45.49,45.49,0,0,0-8.57,10.2l2.39,1.55a43.1,43.1,0,0,1,8-9.61ZM31.83,37.74l-.93,2.69a48.1,48.1,0,0,1,18,11.27l2-2.06a50.88,50.88,0,0,0-19-11.9ZM50.86,21A54,54,0,0,1,59.8,47.58L57,47.76a51.23,51.23,0,0,0-8.48-25.2Z" transform="translate(-0.11 -0.11)" style="fill:#fff;fill-rule:evenodd"/></svg>