<?xml version="1.0" encoding="utf-8"?>
<!-- Generator: Adobe Illustrator 24.0.1, SVG Export Plug-In . SVG Version: 6.00 Build 0)  -->
<svg version="1.1" id="Layer_1" xmlns="http://www.w3.org/2000/svg" xmlns:xlink="http://www.w3.org/1999/xlink" x="0px" y="0px"
	 viewBox="0 0 80 71.1" style="enable-background:new 0 0 80 71.1;" xml:space="preserve">
<style type="text/css">
	.st0{fill-rule:evenodd;clip-rule:evenodd;fill:#FFFFFF;}
</style>
<title>Icon-Architecture/64/Arch_AWS-Data-Pipeline_64</title>
<desc>Created with Sketch.</desc>
<g id="Icon-Architecture_x2F_64_x2F_Arch_x5F_AWS-Data-Pipeline_x5F_64">
	<path id="AWS-Data-Pipeline_Icon_64_Squid" class="st0" d="M75.6,68.1h-4.4c-0.7,0-1.5-0.8-1.5-1.5v-3H77v3
		C77,67.3,76.2,68.1,75.6,68.1L75.6,68.1z M13.3,63.7h53.3v-4.4H13.3V63.7z M8.9,68.1H4.4c-1,0-1.5-0.5-1.5-1.5v-3h7.4v3
		C10.4,67.2,10.1,68.1,8.9,68.1L8.9,68.1z M4.4,23.7h4.4c0.7,0,1.5,0.8,1.5,1.5v4.4H3v-4.4C3,24.5,3.8,23.7,4.4,23.7L4.4,23.7z
		 M35.6,28.1h8.9h22.2v4.4H13.3v-4.4H35.6z M37.1,17.8H43l0,7.4H37L37.1,17.8z M29.6,14.8c-0.8,0-1.4,0.6-1.5,1.3
		c-0.2,0.1-0.6,0.2-1.5,0.2c-1.9,0-3-0.6-3-3.4c0-2.7,1-4,3-4c0.9,0,1.3,0.1,1.5,0.2c0.1,0.7,0.7,1.3,1.5,1.3h19.3
		c0.7,0,1.3-0.5,1.5-1.2c0.2-0.1,0.6-0.2,1.5-0.2c1.6,0,3,0.3,3,3.7c0,3-1.1,3.7-3,3.7c-0.9,0-1.3-0.1-1.5-0.2
		c-0.1-0.7-0.7-1.3-1.5-1.3h-3h-3h-5.9h-3H29.6z M40,3c2.3,0,3,2.9,3,4.4H37C37,5.9,37.7,3,40,3L40,3z M69.6,60.7H77V32.6h-7.4V60.7
		z M13.3,56.3h53.3V35.6H13.3V56.3z M3,60.7h7.4V32.6H3V60.7z M71.1,23.7h4.4c0.7,0,1.5,0.9,1.5,1.5v4.4h-7.4v-4.4
		C69.6,24.6,70.4,23.7,71.1,23.7L71.1,23.7z M75.6,20.7h-4.4c-2.2,0-4.4,2.2-4.4,4.4H45.9l0-7.4h1.9c0.5,0.8,1.7,1.5,4,1.5
		c2.7,0,5.9-1.1,5.9-6.6c0-4.5-2-6.7-5.9-6.7c-2.1,0-3.3,0.7-3.9,1.5h-2c0-3.7-2-7.4-5.9-7.4s-5.9,3.7-5.9,7.4h-3.4
		c-0.5-0.8-1.6-1.5-4-1.5c-2.9,0-5.9,1.8-5.9,7c0,4.1,2.1,6.4,5.9,6.4c2.4,0,3.5-0.7,4-1.5h3.4l0,7.4H13.3c0-2.3-2.2-4.4-4.4-4.4
		H4.4c-2.3,0-4.4,2.2-4.4,4.4v41.5c0,2.6,1.8,4.4,4.4,4.4h4.4c2.9,0,4.4-2.3,4.4-4.4h53.3c0,2.3,2.2,4.4,4.4,4.4h4.4
		c2.3,0,4.4-2.2,4.4-4.4V25.2C80,22.9,77.8,20.7,75.6,20.7L75.6,20.7z"/>
</g>
</svg>
