<?xml version="1.0" encoding="utf-8"?>
<!-- Generator: Adobe Illustrator 24.0.1, SVG Export Plug-In . SVG Version: 6.00 Build 0)  -->
<svg version="1.1" id="Layer_1" xmlns="http://www.w3.org/2000/svg" xmlns:xlink="http://www.w3.org/1999/xlink" x="0px" y="0px"
	 viewBox="0 0 256 256" style="enable-background:new 0 0 256 256;" xml:space="preserve">
<style type="text/css">
	.st0{fill:#5C5C5E;}
	.st1{filter:url(#Adobe_OpacityMaskFilter);}
	.st2{fill:#FFFFFF;}
	.st3{mask:url(#mask-2_3_);fill:#FFFFFF;}
</style>
<g>
	<circle class="st0" cx="128" cy="128" r="125"/>
	<defs>
		<filter id="Adobe_OpacityMaskFilter" filterUnits="userSpaceOnUse" x="36.3" y="71.9" width="189.9" height="153.1">
			<feColorMatrix  type="matrix" values="1 0 0 0 0  0 1 0 0 0  0 0 1 0 0  0 0 0 1 0"/>
		</filter>
	</defs>
	<mask maskUnits="userSpaceOnUse" x="36.3" y="71.9" width="189.9" height="153.1" id="mask-2_3_">
		<g class="st1">
			<path id="path-1_3_" class="st2" d="M128,0c70.7,0,128,57.3,128,128s-57.3,128-128,128S0,198.7,0,128S57.3,0,128,0z"/>
		</g>
	</mask>
	<path class="st3" d="M192,181.1c-4.4,13.6-11,23.7-20.2,31.1s-21.5,11.4-36.8,12.7l-3.1-20.2c10.1-1.3,17.5-3.5,22.4-7
		c1.8-1.3,5.3-5.3,5.3-5.3L123.2,75.8h30.3l21.1,87.3l22.4-87.3h29.4L192,181.1z M86.3,71.9c7,0,13.6,0.9,18.9,3.1
		c5.7,2.2,11,5.3,16.2,9.6l-12.3,16.7c-3.5-2.6-7-4.4-10.1-5.7c-3.1-1.3-7-1.8-10.5-1.8c-14.9,0-22.4,11.4-22.4,34.6
		c0,11.8,1.8,20.2,5.7,25c3.9,5.3,9.2,7.5,16.7,7.5c3.5,0,7-0.4,10.1-1.8s6.6-3.1,11-5.7l12.3,17.5c-10.1,8.3-21.5,12.3-34.6,12.3
		c-10.5,0-19.3-2.2-27.2-6.6c-7.5-4.4-13.6-11-17.5-19.3c-3.9-8.3-6.1-18-6.1-29.4c0-11,2.2-21.1,6.1-29.4
		c3.9-8.8,10.1-15.4,17.5-20.2C67.5,74.5,76.2,71.9,86.3,71.9z"/>
</g>
</svg>
