<?xml version="1.0" encoding="utf-8"?>
<!-- Generator: Adobe Illustrator 24.0.1, SVG Export Plug-In . SVG Version: 6.00 Build 0)  -->
<svg version="1.1" id="Layer_1" xmlns="http://www.w3.org/2000/svg" xmlns:xlink="http://www.w3.org/1999/xlink" x="0px" y="0px"
	 viewBox="0 0 71 80" style="enable-background:new 0 0 71 80;" xml:space="preserve">
<style type="text/css">
	.st0{fill:#5294CF;}
	.st1{fill:#1F5B98;}
	.st2{fill:#2D72B8;}
	.st3{fill:#1A476F;}
</style>
<symbol  id="A" viewBox="-35.5 -40 71 80">
	<g>
		<path class="st0" d="M10.3,40h1l15.9-7.9l0.3-0.4v-63.4l-0.3-0.4L11.3-40h-1L10.3,40"/>
		<path class="st1" d="M-10.3,40h-1l-15.9-7.9l-0.3-0.6l-0.2-62.9l0.5-0.7l15.9-7.9h1L-10.3,40"/>
		<path class="st2" d="M-11.3-40h22.6v80h-22.6V-40z"/>
		<path class="st3" d="M35.5-1.8L35-1.9l-7.7-0.7l-0.1,0.1L11.3-3.2h-22.6l-15.9,0.6v-12.1l0,0l0,0l15.9-3.7h22.6l15.9,3.7l5.8,3.1
			v-2l2.5-0.3l-0.3-0.5L27.4-20l-0.2,0.1l-15.9-4.9h-22.6l-15.9,4.9v-12.2l-8.3,9.7v8.5l0.1,0l2.4,0.3v2l-2.5,1.3v8.5l0.1,0l2.4,0
			v3.6l-2.1,0l-0.4,0v8.5l2.5,1.3v2.1l-2.4,0.3l-0.1-0.1v8.5l8.3,9.7V19.9l15.9,4.9h22.6l15.9-4.9l0.2,0.1l7.7-5.5l0.3-0.5L33,13.6
			v-2l-0.3-0.1l-5.3,2.8l-0.2,0.4l-15.9,3.7h-22.6v0l-15.9-3.7V2.6l15.9,0.6v0h22.6l15.9-0.6l0.4,0.2L35,2.1l0.5-0.3l-2.5,0v-3.6
			L35.5-1.8"/>
		<path class="st2" d="M27.2,19.9v12.2l8.3-9.7v-8.4L27.2,19.9L27.2,19.9 M27.2,14.7L27.2,14.7l8.3-4.5V1.8l-8.3,0.8V14.7
			 M27.2-14.7L27.2-14.7l0,12.1l8.3,0.8v-8.5L27.2-14.7 M27.2-19.8l8.3,6v-8.4l-8.3-9.7L27.2-19.8L27.2-19.8L27.2-19.8"/>
	</g>
</symbol>
<use xlink:href="#A"  width="71" height="80" id="XMLID_1_" x="-35.5" y="-40" transform="matrix(1 0 0 1 35.494 40)" style="overflow:visible;"/>
</svg>
