<?xml version="1.0" encoding="utf-8"?>
<!-- Generator: Adobe Illustrator 24.0.1, SVG Export Plug-In . SVG Version: 6.00 Build 0)  -->
<svg version="1.1" id="Layer_1" xmlns="http://www.w3.org/2000/svg" xmlns:xlink="http://www.w3.org/1999/xlink" x="0px" y="0px"
	 viewBox="0 0 119 59" style="enable-background:new 0 0 119 59;" xml:space="preserve">
<style type="text/css">
	.st0{fill:#FFFFFF;}
</style>
<path class="st0" d="M1.2,58h9.7V16.6H1.2C1.2,16.6,1.2,58,1.2,58z M6.1,11.2c3,0,5.4-2.3,5.4-5.3c0-3-2.4-5.3-5.4-5.3
	c-3,0-5.4,2.3-5.4,5.3C0.7,8.8,3.1,11.2,6.1,11.2z M43.3,0.7c-16.4,0-26.8,11.2-26.8,29.1s10.3,29.1,26.8,29.1
	C59.7,58.9,70,47.8,70,29.8S59.7,0.7,43.3,0.7z M43.3,9.3c10,0,16.4,8,16.4,20.5c0,12.5-6.4,20.5-16.4,20.5
	c-10.1,0-16.4-8-16.4-20.5C26.9,17.3,33.3,9.3,43.3,9.3z M74.2,42.1c0.4,10.4,8.9,16.8,21.9,16.8c13.6,0,22.2-6.7,22.2-17.4
	c0-8.4-4.8-13.1-16.3-15.7l-6.5-1.5c-6.9-1.6-9.8-3.8-9.8-7.6c0-4.7,4.3-7.8,10.7-7.8c6.4,0,10.9,3.2,11.3,8.4h9.6
	c-0.2-9.9-8.4-16.6-20.9-16.6c-12.3,0-21,6.8-21,16.8c0,8,4.9,13,15.3,15.4l7.3,1.7c7.1,1.7,10,4,10,8.1c0,4.7-4.7,8-11.5,8
	c-6.9,0-12.1-3.4-12.7-8.6L74.2,42.1L74.2,42.1z"/>
</svg>
