<svg xmlns="http://www.w3.org/2000/svg" viewBox="0 0 46.13 48"><title>lambda</title><path d="M13.64,44.8H5.07L15.22,23.53l4.29,8.86Zm3-25.66a1.61,1.61,0,0,0-1.44-.9h0a1.59,1.59,0,0,0-1.43.91L1.09,45.71A1.6,1.6,0,0,0,2.53,48H14.65a1.61,1.61,0,0,0,1.45-.92l6.63-14a1.56,1.56,0,0,0,0-1.38ZM43.87,44.8H35.14L19.28,10.72a1.59,1.59,0,0,0-1.45-.92H12.07V3.2H23.63L39.41,37.27a1.59,1.59,0,0,0,1.45.93h3Zm1.6-9.8H41.88L26.1.93A1.59,1.59,0,0,0,24.65,0H10.48a1.6,1.6,0,0,0-1.6,1.6v9.8a1.61,1.61,0,0,0,.47,1.13,1.59,1.59,0,0,0,1.13.47h6.34L32.67,47.08a1.61,1.61,0,0,0,1.45.92H45.47a1.6,1.6,0,0,0,1.6-1.6V36.6a1.6,1.6,0,0,0-1.6-1.6Z" transform="translate(-0.93)" style="fill:#fff;fill-rule:evenodd"/></svg>