<?xml version="1.0" encoding="utf-8"?>
<!-- Generator: Adobe Illustrator 24.0.1, SVG Export Plug-In . SVG Version: 6.00 Build 0)  -->
<svg version="1.1" id="Layer_1" xmlns="http://www.w3.org/2000/svg" xmlns:xlink="http://www.w3.org/1999/xlink" x="0px" y="0px"
	 viewBox="0 0 56.7 22.7" style="enable-background:new 0 0 56.7 22.7;" xml:space="preserve">
<style type="text/css">
	.st0{fill:#356388;}
	.st1{fill:#39B54A;}
	.st2{fill:#3C9CD7;}
</style>
<g>
	<rect x="34.1" y="4.1" class="st0" width="3" height="2.7"/>
	<rect x="47.3" y="4.1" class="st1" width="2.9" height="2.8"/>
	<rect x="38.5" y="15.5" class="st1" width="2.9" height="2.8"/>
	<rect x="34.1" y="7.6" class="st1" width="3" height="2.8"/>
	<path class="st0" d="M34.1,11.2v3.3c0,0.8-0.4,1.3-1.1,1.3c-0.7,0-1.1-0.4-1.1-1.3V4.1h-0.4c-1.8,0-2.7,1.1-2.7,3.4v7.2
		c0,2.7,1.5,3.9,4.1,3.9c2.4,0,4.3-1.4,4.3-4v-3.3L34.1,11.2L34.1,11.2z"/>
	<path class="st2" d="M23.8,4.1h-1.9c-1.8,0-2.7,1.1-2.7,3.4v10.9h3.1v-5.1h1.4c2.6,0,3.7-1.8,3.7-4.8C27.4,5.6,26.1,4.1,23.8,4.1z
		 M23.2,10.7h-0.9V6.6h0.9c0.7,0,1.1,0.6,1.1,1.9C24.3,10,24,10.7,23.2,10.7z"/>
	<path class="st2" d="M4.6,4.1H2.7C0.9,4.1,0,5.2,0,7.4v10.9h3.1v-5.1h1.4c2.6,0,3.7-1.8,3.7-4.8C8.2,5.6,6.9,4.1,4.6,4.1z M4,10.7
		H3.1V6.6H4c0.7,0,1.1,0.6,1.1,1.9C5.1,10,4.7,10.7,4,10.7z"/>
	<path class="st2" d="M17.3,4.1c-1.8,0-2.7,1.1-2.7,3.4v2v0.3h-2.2V9.5V4.1h-0.4c-1.8,0-2.7,1.1-2.7,3.4v10.9h3.1v-5.5v-0.3l0,0h2.2
		l0,0v0.3v5.5h3.1V4.1L17.3,4.1L17.3,4.1z"/>
	<path class="st0" d="M56.7,9.9V7.7h-1.5V5.3h-0.9c-1.3,0-2,0.8-2,2.4h-0.9v2.2h0.9v6.3c0,1.6,1.1,2.3,2.5,2.3
		c0.6,0,1.3-0.1,1.8-0.3v-2.3c-0.2,0-0.5,0.1-0.8,0.1c-0.5,0-0.6-0.2-0.6-0.6V9.9C55.2,9.9,56.7,9.9,56.7,9.9z"/>
	<path class="st0" d="M43.6,7.3c-0.9,0-1.7,0.4-2.2,1.2V7.6h-0.9c-1.3,0-2,0.8-2,2.4v4.7h2.9v-3.8c0-0.6,0.3-1.1,0.8-1.1
		c0.6,0,0.8,0.5,0.8,0.9v7.6h2.9V9.6C45.9,8.2,44.9,7.3,43.6,7.3z"/>
	<path class="st0" d="M49.3,7.7c-1.3,0-2,0.8-2,2.4v8.2h2.9V7.7C50.2,7.7,49.3,7.7,49.3,7.7z"/>
</g>
</svg>
