<svg xmlns="http://www.w3.org/2000/svg" viewBox="0 0 45.55 47.46">
    <path d="M40.45,26.3l.24-1.8a8.42,8.42,0,0,1,2.69,2.13,6.78,6.78,0,0,1-2.93-.33ZM21.38,19.78a.1.1,0,0,1,.1-.1l.05,0-.08.15s-.07,0-.07-.07ZM36.15,42.06a.76.76,0,0,0,0,.15c0,.16-.41.8-2.22,1.51a20.58,20.58,0,0,1-2.84.86,44.32,44.32,0,0,1-9.6,1c-9.12,0-14.65-2.33-14.65-3.36,0-.05,0-.1,0-.15L2.68,11.35c.27.16.55.3.85.45l.27.12.8.34.37.15c.3.11.6.22.92.32l.28.09c.41.13.83.25,1.27.37l.37.09,1,.25.45.1,1.21.23.26.05c.49.09,1,.17,1.51.24l.44.06c.39.06.78.11,1.18.15l.48.06,1.45.14H16c.54,0,1.08.08,1.63.11l.47,0,1.24,0h.49l1.65,0,1.66,0h.48l1.24,0,.47,0c.55,0,1.1-.06,1.64-.11h.18l1.44-.14.49-.06q.6-.06,1.17-.15l.45-.06c.51-.07,1-.15,1.51-.24l.26-.05,1.2-.23.46-.1,1-.25.37-.09c.44-.12.86-.24,1.27-.37l.27-.09q.48-.15.93-.33l.36-.13.82-.35.26-.12c.29-.15.58-.29.85-.45L38.36,25.68a128.09,128.09,0,0,1-14.63-6A2.25,2.25,0,1,0,21.48,22a2.21,2.21,0,0,0,1.31-.43,110,110,0,0,0,15.28,6.22ZM21.48,2.43c11.23,0,19.13,3.47,19.28,5.4l0,.23a.93.93,0,0,1-.1.2.7.7,0,0,1-.09.17,1.51,1.51,0,0,1-.17.2l-.17.18-.26.2-.24.19-.33.2-.32.19-.39.19-.4.2-.45.18-.48.2-.51.17-.56.19-.57.17-.62.18-.65.16-.67.17-.72.15-.71.15-.81.14-.74.12-.87.13-.79.1-1,.11-.78.08-1.12.09-.75,0c-.41,0-.83,0-1.26.06l-.69,0c-.67,0-1.35,0-2.05,0s-1.38,0-2,0l-.71,0c-.42,0-.84,0-1.25-.06s-.52,0-.79-.06l-1.07-.08-.79-.08-1-.11-.79-.1L12.2,12l-.78-.13-.77-.13-.72-.15-.72-.15-.67-.17-.64-.16-.63-.18-.56-.17-.57-.19-.5-.17-.49-.2L4.71,10l-.4-.2-.39-.19-.33-.2L3.27,9.2,3,9a2.73,2.73,0,0,1-.25-.2c-.07-.06-.11-.12-.17-.18l-.18-.2c0-.06-.06-.12-.09-.17s-.07-.14-.09-.2l0-.23c.15-1.93,8.05-5.4,19.27-5.4Zm24.09,24c-.23-1.24-1.66-2.55-4.57-4.21L42.85,8.45h0L42.91,8s0-.1,0-.14C42.92,3.4,31.62.27,21.48.27S.05,3.4.05,7.89A.66.66,0,0,0,.06,8l.06.42h0L4.67,42.29c.14,4,10.36,5.44,16.81,5.44a46.16,46.16,0,0,0,10.08-1,22,22,0,0,0,3.15-1c2.33-.92,3.54-2.08,3.58-3.44l1.88-13.93a13.59,13.59,0,0,0,2.73.35A2.86,2.86,0,0,0,45.15,28a1.91,1.91,0,0,0,.42-1.59Z" transform="translate(-0.05 -0.27)" style="fill:#fff;fill-rule:evenodd"/>
</svg>